<?xml version="1.0" encoding="utf-8"?>
<!-- Svg Vector Icons : http://www.onlinewebfonts.com/icon -->
<!DOCTYPE svg PUBLIC "-//W3C//DTD SVG 1.1//EN" "http://www.w3.org/Graphics/SVG/1.1/DTD/svg11.dtd">
<svg version="1.1" xmlns="http://www.w3.org/2000/svg" xmlns:xlink="http://www.w3.org/1999/xlink" x="0px" y="0px" viewBox="0 0 1000 1000" enable-background="new 0 0 1000 1000" xml:space="preserve">
<metadata> Svg Vector Icons : http://www.onlinewebfonts.com/icon </metadata>
<g><g transform="translate(0.000000,511.000000) scale(0.100000,-0.100000)"><path d="M1161.6,4393.3c-633.3-82.5-1038.3-725.5-1059.4-1683.2c-5.8-205.4-1.9-232.2,36.5-293.6c86.4-138.2,109.4-143.9,673.6-149.7l502.8-5.8V-506.5c0-1804.1,7.7-2811.7,19.2-2892.3c63.3-397.3,380-710.1,777.3-767.7c180.4-25,4980.5-25,5162.8,0c393.5,55.7,721.6,383.8,777.3,777.3c9.6,74.9,19.2,610.3,19.2,1209.1v1074.8l-307.1-307.1l-305.2-305.2l-5.7-836.8c-5.8-829.1-5.8-834.9-48-894.4c-94-130.5,96-122.8-2711.9-122.8c-2807.9,0-2617.9-7.7-2711.9,122.8l-42.2,59.5l-11.5,3281.9c-7.7,2512.3-15.4,3306.9-34.5,3385.5c-49.9,218.8-155.5,381.9-293.7,454.9c-28.8,15.4-97.9,34.5-153.5,44.1c-61.4,9.6,955.8,17.3,2568,19.2c2604.4,1.9,2673.5,1.9,2792.5-36.5c218.8-67.2,378.1-186.2,500.9-372.3c145.9-226.5,149.7-251.4,149.7-1207.2v-848.3l309,307.1l309,307.1l-9.6,575.8c-7.7,508.6-13.4,593-49.9,729.3c-142,541.2-554.6,953.9-1105.5,1107.4l-153.5,44.1l-2744.5,1.9C2503.1,4406.8,1219.1,4401,1161.6,4393.3z"/><path d="M8909.6,2241.8c-101.7-23-207.3-101.7-387.7-284l-153.5-155.5l541.2-539.3l539.3-541.2l186.2,188.1c211.1,215,264.9,303.2,264.9,441.4c1.9,180.4-26.9,226.5-330.1,533.5c-153.6,157.4-310.9,301.3-347.4,320.5C9136.1,2247.6,9003.6,2264.9,8909.6,2241.8z"/><path d="M3677.7,1934.8c-42.2-13.4-142-96-291.7-241.8l-226.5-220.7l-80.6,69.1c-46.1,38.4-115.2,78.7-155.5,90.2c-216.9,57.6-418.4-149.7-358.9-370.4c30.7-119,393.4-481.7,512.4-512.4c157.4-44.1,203.4-15.4,562.3,337.8c383.8,376.2,424.2,431.8,426.1,556.6C4069.2,1850.3,3877.3,1994.3,3677.7,1934.8z"/><path d="M4602.8,1627.7c-84.4-24.9-172.7-119-197.7-211.1c-42.2-153.5,55.7-320.5,211.1-362.7c49.9-13.4,405-19.2,1040.2-15.4c953.9,5.8,965.4,5.8,1032.5,48c90.2,55.7,142,147.8,142,255.3s-51.8,199.6-142,255.3c-67.2,42.2-76.8,42.2-1046,46.1C5078.8,1645,4639.3,1639.2,4602.8,1627.7z"/><path d="M6907.8,339.9c-677.5-679.4-1247.5-1259-1268.6-1291.7c-53.7-78.7-619.9-1324.3-633.4-1393.4c-15.4-76.8,59.5-220.7,136.3-261c120.9-63.3,174.6-48,836.8,253.3c343.6,157.4,658.3,309,700.5,337.8s633.3,606.5,1312.8,1284l1236,1232.1l-535.5,535.5c-293.7,293.6-539.3,535.5-545.1,535.5C8141.9,1572,7583.4,1017.4,6907.8,339.9z M6180.4-1479.6c136.3-136.3,243.8-253.3,238-259.1c-5.8-5.8-143.9-71-305.2-143.9l-295.6-136.3l-92.1,94.1l-94,92.1l109.4,239.9c59.5,130.5,120.9,266.8,134.3,301.3c15.4,32.6,34.6,61.4,42.2,61.4C5925.2-1230.1,6044.1-1341.4,6180.4-1479.6z"/><path d="M3677.7,399.4c-42.2-13.4-142-96-291.7-241.8L3159.5-63.2l-80.6,69.1c-46.1,38.4-115.2,78.7-155.5,90.2c-216.9,57.6-418.4-149.7-358.9-370.4c30.7-119,393.4-481.7,512.4-512.5c159.3-44.1,207.3-15.4,564.3,339.7c383.9,378.1,422.2,429.9,424.1,554.7C4069.2,314.9,3877.3,458.9,3677.7,399.4z"/><path d="M4602.8,92.3c-84.4-24.9-172.7-119-197.7-211.1c-42.2-151.6,55.7-320.5,207.3-362.7c40.3-9.6,278.3-19.2,541.2-19.2h470.2l307.1,307.1L6238,113.4l-786.9-1.9C5017.3,111.5,4637.3,101.9,4602.8,92.3z"/><path d="M3677.7-1136c-42.2-13.4-142-96-291.7-241.8l-226.5-220.7l-80.6,69.1c-46.1,38.4-115.2,78.7-155.5,90.2c-215,57.6-418.4-149.7-360.8-368.5c17.3-59.5,65.3-124.7,195.8-259.1c96-99.8,205.4-199.6,241.8-222.6c88.3-53.7,226.5-53.7,314.8,0c76.8,48,690.9,667.9,725.5,731.2c36.5,71,32.6,215-11.5,286C3961.8-1155.2,3810.1-1097.6,3677.7-1136z"/></g></g>
</svg>