<?xml version="1.0" encoding="utf-8"?><svg version="1.1" id="Layer_1" xmlns="http://www.w3.org/2000/svg" xmlns:xlink="http://www.w3.org/1999/xlink" x="0px" y="0px" viewBox="0 0 111.16 122.88" style="enable-background:new 0 0 111.16 122.88" xml:space="preserve"><style type="text/css">.st0{fill-rule:evenodd;clip-rule:evenodd;}</style><g><path class="st0" d="M76.58,59.19h27.74c3.76,0,6.84,3.08,6.84,6.84v28.04c0,3.76-3.08,6.84-6.84,6.84H76.58 c-11.47,0-20.86-9.39-20.86-20.86l0,0C55.73,68.57,65.1,59.19,76.58,59.19L76.58,59.19L76.58,59.19z M45.13,20.13l4.54,4.29 l9.83-9.97c0.87-0.88,1.41-1.58,2.48-0.49l3.46,3.55c1.14,1.12,1.08,1.78,0.01,2.83l-13.8,13.02c-2.26,2.22-1.87,2.35-4.16,0.08 l-8.18-7.59c-0.48-0.52-0.43-1.04,0.1-1.56l4.02-4.17C44.02,19.49,44.5,19.53,45.13,20.13L45.13,20.13L45.13,20.13z M10.98,26.25 h17.7c-0.03-0.5-0.05-1-0.05-1.51C28.64,11.08,39.71,0,53.38,0c13.66,0,24.74,11.08,24.74,24.74c0,0.5-0.02,1-0.04,1.5l6.51-0.01 c6.65-0.01,12.09,5.2,12.09,11.85v1.98c3.28,2.17,5.45,5.89,5.45,10.09v4.36h-7.68V51.6c0-3.13-2.56-5.68-5.68-5.68H18.12v-6.33 c0-0.84,0.69-1.53,1.53-1.53h12.88c-0.85-1.32-1.57-2.73-2.16-4.21H12.69c-2.2,0-3.99,1.8-3.99,3.99v72.63 c0,2.2,1.8,3.99,3.99,3.99l77.7,0c2.2,0,3.99-1.8,3.99-3.99v-4.57h7.88v7.55h-0.02c-0.03,5.22-5.6,9.43-11.1,9.43H10.95 C4.93,122.87,0,117.94,0,111.92V37.23C0,31.19,4.94,26.25,10.98,26.25L10.98,26.25L10.98,26.25z M76.38,33.84 c-0.59,1.48-1.31,2.89-2.16,4.21h15.8c0.44,0,0.87,0.02,1.3,0.07v-0.29c0-2.2-1.8-3.99-3.99-3.99H76.38L76.38,33.84L76.38,33.84z M77.63,66.83h24.61v26.44H77.63c-7.27,0-13.22-5.95-13.22-13.22l0,0C64.41,72.77,70.36,66.83,77.63,66.83L77.63,66.83L77.63,66.83 z M83.68,75.67c2.49,0,4.51,2.02,4.51,4.51c0,2.49-2.02,4.51-4.51,4.51c-2.49,0-4.51-2.02-4.51-4.51 C79.17,77.69,81.19,75.67,83.68,75.67L83.68,75.67L83.68,75.67z"/></g></svg>