<?xml version="1.0" encoding="iso-8859-1"?>
<!-- Generator: Adobe Illustrator 19.0.0, SVG Export Plug-In . SVG Version: 6.00 Build 0)  -->
<svg version="1.1" id="Layer_1" xmlns="http://www.w3.org/2000/svg" xmlns:xlink="http://www.w3.org/1999/xlink" x="0px" y="0px"
	 viewBox="0 0 512 512" style="enable-background:new 0 0 512 512;" xml:space="preserve">
<g>
	<g>
		<g>
			<path d="M397.686,147.581H114.314l-84.3,119.224L256,512l225.986-245.196L397.686,147.581z M380.666,180.462l48.461,68.537
				h-69.988l-23.857-68.537H380.666z M211.534,180.462h88.93l23.857,68.537H187.678L211.534,180.462z M131.334,180.462h45.383
				l-23.857,68.537H82.874L131.334,180.462z M88.625,281.88h64.908l52.331,127.203L88.625,281.88z M189.089,281.88h133.823
				L256,444.527L189.089,281.88z M306.137,409.084l52.33-127.204h64.909L306.137,409.084z"/>
			<rect x="239.563" width="32.881" height="94.589"/>
			
				<rect x="86.642" y="44.704" transform="matrix(0.7071 0.7071 -0.7071 0.7071 82.4643 -76.7981)" width="94.588" height="32.881"/>
			
				<rect x="361.621" y="13.852" transform="matrix(0.7071 0.7071 -0.7071 0.7071 153.9688 -249.421)" width="32.881" height="94.588"/>
		</g>
	</g>
</g>
<g>
</g>
<g>
</g>
<g>
</g>
<g>
</g>
<g>
</g>
<g>
</g>
<g>
</g>
<g>
</g>
<g>
</g>
<g>
</g>
<g>
</g>
<g>
</g>
<g>
</g>
<g>
</g>
<g>
</g>
</svg>
