<?xml version="1.0"?>
<svg xmlns="http://www.w3.org/2000/svg" viewBox="0 0 32 32">
    <path style="line-height:normal;text-indent:0;text-align:start;text-decoration-line:none;text-decoration-style:solid;text-decoration-color:#000;text-transform:none;block-progression:tb;isolation:auto;mix-blend-mode:normal" d="M 10.496094 3.0058594 C 6.1267244 2.8845195 2.2298964 6.1777161 2.0097656 10.591797 C 1.9095939 12.594092 2.553545 14.461173 3.6875 15.916016 L 3.6933594 15.921875 L 4.0722656 16.388672 C 3.8757507 17.346829 4.142238 18.384426 4.8789062 19.121094 C 5.4605449 19.704224 6.2340937 20 7 20 C 7.0019428 20 7.0039165 20.000004 7.0058594 20 C 7.0058594 20.769779 7.2973697 21.539557 7.8789062 22.121094 C 8.4605448 22.704224 9.2340937 23 10 23 C 10.001943 23 10.003917 23.000004 10.005859 23 C 10.005859 23.769779 10.29737 24.539557 10.878906 25.121094 C 11.460545 25.704224 12.234094 26 13 26 C 13.001943 26 13.003917 26.000004 13.005859 26 C 13.005859 26.769779 13.29737 27.539557 13.878906 28.121094 C 14.460545 28.704224 15.234094 29 16 29 C 16.765906 29 17.539455 28.704224 18.121094 28.121094 L 19.121094 27.121094 C 19.449168 26.79302 19.675368 26.402378 19.818359 25.988281 C 19.878823 25.99195 19.939504 26 20 26 C 20.765906 26 21.539455 25.704224 22.121094 25.121094 C 22.70263 24.539557 22.994141 23.769779 22.994141 23 C 22.995301 22.999994 22.998866 23 23 23 C 23.765906 23 24.539455 22.704224 25.121094 22.121094 C 25.689259 21.552929 25.975217 20.804716 25.988281 20.052734 C 26.728082 20.028453 27.535005 19.759138 28.148438 19.09375 L 28.148438 19.091797 L 28.150391 19.091797 C 29.027875 18.139234 29.022236 16.791829 28.443359 15.669922 C 29.473229 14.249456 30.085385 12.493721 29.990234 10.591797 C 29.770104 6.1777161 25.873275 2.8845195 21.503906 3.0058594 C 19.777293 3.0542872 17.734792 3.4336569 16 4.9296875 C 14.265208 3.433657 12.222707 3.0542876 10.496094 3.0058594 z M 10.439453 5.0058594 C 11.890632 5.0465625 13.295637 5.2939167 14.542969 6.3027344 L 11.884766 8.8730469 L 11.878906 8.8789062 C 10.715833 10.041979 10.715833 11.958021 11.878906 13.121094 C 12.460585 13.704223 13.234094 14 14 14 C 14.765906 14 15.539568 13.703081 16.121094 13.123047 L 18.958984 10.390625 C 19.531531 9.8395485 20.411874 9.8538392 20.966797 10.421875 L 26.703125 16.291016 L 26.707031 16.294922 C 27.104722 16.692613 27.093335 17.285441 26.679688 17.736328 C 26.679688 17.736328 26.677734 17.736328 26.677734 17.736328 C 26.677734 17.736328 26.677734 17.738281 26.677734 17.738281 C 26.389231 18.049922 26.103604 18.101904 25.746094 18.058594 C 25.387683 18.015174 25.008168 17.766545 24.96875 17.720703 L 21.724609 14.310547 L 20.275391 15.689453 L 23.697266 19.285156 L 23.707031 19.292969 C 24.105958 19.691896 24.105958 20.308104 23.707031 20.707031 L 23.705078 20.707031 C 23.506729 20.905914 23.258094 21 23 21 C 22.647646 21 22.562319 21.016958 22.455078 20.986328 C 22.347838 20.955698 22.124488 20.860816 21.693359 20.429688 L 18.724609 17.310547 L 17.275391 18.689453 L 20.697266 22.285156 L 20.707031 22.292969 C 21.105958 22.691896 21.105958 23.308104 20.707031 23.707031 L 20.705078 23.707031 C 20.506729 23.905914 20.258094 24 20 24 C 19.934622 24 19.870438 23.987112 19.806641 23.974609 C 19.662562 23.57435 19.43942 23.197233 19.121094 22.878906 C 18.539633 22.2967 17.770049 22.005859 17 22.005859 C 16.998053 22.005859 16.996087 22.005856 16.994141 22.005859 C 16.995615 21.234136 16.7041 20.461913 16.121094 19.878906 C 15.539633 19.2967 14.770049 19.005859 14 19.005859 C 13.998053 19.005859 13.996087 19.005856 13.994141 19.005859 C 13.995615 18.234136 13.7041 17.461913 13.121094 16.878906 C 12.539633 16.2967 11.770049 16.005859 11 16.005859 C 10.998053 16.005859 10.996087 16.005856 10.994141 16.005859 C 10.995615 15.234136 10.7041 14.461913 10.121094 13.878906 C 9.5396327 13.2967 8.7700495 13.005859 8 13.005859 C 7.2299505 13.005859 6.460367 13.2967 5.8789062 13.878906 L 5.1894531 14.568359 C 4.3902611 13.493124 3.9345302 12.15622 4.0078125 10.691406 C 4.1716817 7.4054871 7.1028224 4.9131992 10.439453 5.0058594 z M 21.560547 5.0058594 C 24.897178 4.9131994 27.828318 7.4054871 27.992188 10.691406 C 28.051658 11.88004 27.69227 12.942311 27.15625 13.892578 L 22.398438 9.0234375 C 21.09136 7.6854733 18.919719 7.6542484 17.572266 8.9511719 L 14.714844 11.701172 L 14.707031 11.707031 C 14.508544 11.904956 14.258094 12 14 12 C 13.741906 12 13.493283 11.9059 13.294922 11.707031 L 13.292969 11.707031 C 12.894042 11.308104 12.894042 10.691896 13.292969 10.292969 L 16.996094 6.7128906 L 17.001953 6.7070312 C 18.357199 5.3517852 19.930397 5.0515819 21.560547 5.0058594 z M 8 14.994141 C 8.2539505 14.994141 8.5084921 15.094175 8.7070312 15.292969 C 9.1059583 15.691896 9.1059583 16.308104 8.7070312 16.707031 L 7.7070312 17.707031 L 7.7050781 17.707031 C 7.5067136 17.905901 7.2580937 18 7 18 C 6.7419063 18 6.4932833 17.905901 6.2949219 17.707031 L 6.2929688 17.707031 C 5.8940418 17.308104 5.8940417 16.691896 6.2929688 16.292969 L 7.2929688 15.292969 C 7.4915048 15.094175 7.7460495 14.994141 8 14.994141 z M 11 17.994141 C 11.253951 17.994141 11.508492 18.094175 11.707031 18.292969 C 12.105958 18.691896 12.105958 19.308104 11.707031 19.707031 L 10.707031 20.707031 L 10.705078 20.707031 C 10.506764 20.905901 10.258094 21 10 21 C 9.7419062 21 9.4932833 20.905901 9.2949219 20.707031 L 9.2929688 20.707031 C 8.8940417 20.308104 8.8940417 19.691896 9.2929688 19.292969 L 10.292969 18.292969 C 10.491505 18.094175 10.746049 17.994141 11 17.994141 z M 14 20.994141 C 14.253951 20.994141 14.508492 21.094175 14.707031 21.292969 C 15.105958 21.691896 15.105958 22.308104 14.707031 22.707031 L 13.707031 23.707031 L 13.705078 23.707031 C 13.506764 23.905901 13.258094 24 13 24 C 12.741906 24 12.493283 23.9059 12.294922 23.707031 L 12.292969 23.707031 C 11.894042 23.308104 11.894042 22.691896 12.292969 22.292969 L 13.292969 21.292969 C 13.491555 21.094175 13.746049 20.994141 14 20.994141 z M 17 23.994141 C 17.253951 23.994141 17.508492 24.094175 17.707031 24.292969 C 18.105958 24.691896 18.105958 25.308104 17.707031 25.707031 L 16.707031 26.707031 L 16.705078 26.707031 C 16.506764 26.905901 16.258094 27 16 27 C 15.741906 27 15.493283 26.9059 15.294922 26.707031 L 15.292969 26.707031 C 14.894042 26.308104 14.894042 25.691896 15.292969 25.292969 L 16.292969 24.292969 C 16.491555 24.094175 16.746049 23.994141 17 23.994141 z" font-weight="400" font-family="sans-serif" white-space="normal" overflow="visible"/>
</svg>
