<?xml version="1.0"?>
<svg xmlns="http://www.w3.org/2000/svg" viewBox="0 0 50 50">
    <path d="M 35 2 C 32.032923 2 29.433654 3.7315603 28.052734 6.2675781 C 27.099457 6.1134135 26.131043 6.0180692 25.199219 6.0058594 L 25.199219 6 L 25 6 C 13.4 6 4 15.4 4 27 C 4 38.6 13.4 48 25 48 C 36.6 48 46 38.6 46 27 C 46 22.510885 44.474984 18.116761 41.837891 14.564453 C 42.534368 12.969915 43 11.500702 43 10.400391 C 43 5.8003906 39.4 2 35 2 z M 35 4 C 38.3 4 41 6.9003906 41 10.400391 C 41 12.800391 37.8 18.4 35 22.5 C 32.2 18.4 29 12.800391 29 10.400391 C 29 6.9003906 31.7 4 35 4 z M 35 6 C 32.802706 6 31 7.8027056 31 10 C 31 12.197294 32.802706 14 35 14 C 37.197294 14 39 12.197294 39 10 C 39 7.8027056 37.197294 6 35 6 z M 35 8 C 36.116414 8 37 8.8835859 37 10 C 37 11.116414 36.116414 12 35 12 C 33.883586 12 33 11.116414 33 10 C 33 8.8835859 33.883586 8 35 8 z M 26 8.0449219 C 26.425278 8.0679929 26.862971 8.1057235 27.302734 8.1582031 C 27.111355 8.8741327 27 9.6245538 27 10.400391 C 27 11.825115 27.768653 13.864369 28.828125 16 L 26 16 L 26 8.0449219 z M 24 8.1308594 L 24 16 L 17.71875 16 C 19.178781 11.745838 21.439442 8.7566761 24 8.1308594 z M 19.398438 8.8398438 C 17.825958 10.576701 16.521117 13.034399 15.585938 16 L 9.5234375 16 C 11.916155 12.638905 15.364097 10.081327 19.398438 8.8398438 z M 40.853516 16.615234 C 42.733607 19.375032 43.786231 22.631781 43.960938 26 L 35.992188 26 C 35.987654 25.544862 35.968448 25.100497 35.943359 24.648438 C 37.099294 22.98175 39.160474 19.890753 40.853516 16.615234 z M 8.2636719 18 L 15.03125 18 C 14.443643 20.432606 14.092549 23.129673 14.025391 26 L 6.0507812 26 C 6.2009864 23.11713 6.9704852 20.401194 8.2636719 18 z M 17.107422 18 L 24 18 L 24 26 L 16.025391 26 C 16.099776 23.137873 16.476052 20.415454 17.107422 18 z M 26 18 L 29.898438 18 C 31.3409 20.589453 32.874283 22.929732 33.900391 24.423828 C 33.934421 24.938395 33.951875 25.468278 33.96875 26 L 26 26 L 26 18 z M 6.0507812 28 L 14.025391 28 C 14.092549 30.870327 14.443643 33.567394 15.03125 36 L 8.2636719 36 C 6.9704852 33.598806 6.2009864 30.88287 6.0507812 28 z M 16.025391 28 L 24 28 L 24 36 L 17.107422 36 C 16.476047 33.584537 16.099777 30.86214 16.025391 28 z M 26 28 L 33.974609 28 C 33.900223 30.86214 33.523953 33.584537 32.892578 36 L 26 36 L 26 28 z M 35.974609 28 L 43.949219 28 C 43.799014 30.88287 43.029515 33.598806 41.736328 36 L 34.96875 36 C 35.556357 33.567394 35.907451 30.870327 35.974609 28 z M 9.5234375 38 L 15.585938 38 C 16.521117 40.965601 17.825958 43.423299 19.398438 45.160156 C 15.364097 43.918673 11.916155 41.361095 9.5234375 38 z M 17.71875 38 L 24 38 L 24 45.869141 C 21.439684 45.243383 19.178795 42.253522 17.71875 38 z M 26 38 L 32.28125 38 C 30.821205 42.253522 28.560316 45.243383 26 45.869141 L 26 38 z M 34.414062 38 L 40.476562 38 C 38.083845 41.361095 34.635903 43.918673 30.601562 45.160156 C 32.174042 43.423299 33.478883 40.965601 34.414062 38 z"/>
</svg>
