<svg id="Layer_1" data-name="Layer 1" xmlns="http://www.w3.org/2000/svg" viewBox="0 0 801.11 252.93"><defs><style>.cls-1{fill:#fff;}.cls-2{fill:#e64c4d;}</style></defs><path class="cls-1" d="M323.25,383.19h-9.33l-19.43-48.4h11.67l12.56,33.85,12.57-33.85h11.39Z" transform="translate(-38.42 -225.3)"/><path class="cls-1" d="M350.58,382.85V334.79h10.57v48.06Z" transform="translate(-38.42 -225.3)"/><path class="cls-1" d="M411.54,378.66a22.71,22.71,0,0,1-4.35,2.71,22.43,22.43,0,0,1-5.19,1.72,31.17,31.17,0,0,1-6.31.58,24.89,24.89,0,0,1-9.82-1.92,23.68,23.68,0,0,1-13-13.11A25.47,25.47,0,0,1,371,359v-.14a25.17,25.17,0,0,1,1.85-9.65,24.71,24.71,0,0,1,5.15-7.89,23.92,23.92,0,0,1,7.9-5.36,25.74,25.74,0,0,1,10.16-2,32.22,32.22,0,0,1,6.14.55,25.83,25.83,0,0,1,5.05,1.51,22.44,22.44,0,0,1,4.19,2.34,27.94,27.94,0,0,1,3.57,3l-6.73,7.76a25.18,25.18,0,0,0-5.74-4,14.46,14.46,0,0,0-6.55-1.45,13.38,13.38,0,0,0-5.6,1.17,13.16,13.16,0,0,0-4.42,3.23,15,15,0,0,0-2.89,4.77,16.35,16.35,0,0,0-1,5.8v.14a16.59,16.59,0,0,0,1,5.83,15.4,15.4,0,0,0,2.85,4.81A13.19,13.19,0,0,0,396,373.92a14.71,14.71,0,0,0,7-1.51,26.84,26.84,0,0,0,5.66-4.12l6.73,6.8A34.52,34.52,0,0,1,411.54,378.66Z" transform="translate(-38.42 -225.3)"/><path class="cls-1" d="M445.6,344.54v38.31H435V344.54H420.4v-9.75h39.82v9.75Z" transform="translate(-38.42 -225.3)"/><path class="cls-1" d="M515.35,368.46a24.54,24.54,0,0,1-13.42,13.25,27.78,27.78,0,0,1-20.5,0,25.28,25.28,0,0,1-8.06-5.28,23.61,23.61,0,0,1-5.29-7.83,24.63,24.63,0,0,1-1.89-9.64v-.14a24.31,24.31,0,0,1,1.92-9.65,24.69,24.69,0,0,1,13.43-13.25,27.76,27.76,0,0,1,20.49,0,25.63,25.63,0,0,1,8.07,5.29,23.79,23.79,0,0,1,5.28,7.82,24.68,24.68,0,0,1,1.89,9.65v.14A24.26,24.26,0,0,1,515.35,368.46Zm-9.13-9.64a16,16,0,0,0-1.07-5.84,14.41,14.41,0,0,0-7.65-8.06,14,14,0,0,0-5.84-1.21,14.34,14.34,0,0,0-5.87,1.17,13.39,13.39,0,0,0-4.53,3.23,15.12,15.12,0,0,0-2.95,4.77,15.72,15.72,0,0,0-1.06,5.8v.14a16,16,0,0,0,1.06,5.83,14.47,14.47,0,0,0,7.62,8.07,14,14,0,0,0,5.87,1.2,14.44,14.44,0,0,0,5.84-1.17,13.29,13.29,0,0,0,4.56-3.22,15.35,15.35,0,0,0,2.95-4.77,15.77,15.77,0,0,0,1.07-5.8Z" transform="translate(-38.42 -225.3)"/><path class="cls-1" d="M555.85,382.85l-10.29-15.38h-8.31v15.38H526.68V334.79h22q8.58,0,13.35,4.19t4.77,11.67v.14a15,15,0,0,1-2.85,9.5,16.46,16.46,0,0,1-7.45,5.39l11.74,17.17Zm.21-31.65a6.11,6.11,0,0,0-2.2-5.15,9.65,9.65,0,0,0-6.11-1.72h-10.5v13.8H548a8.82,8.82,0,0,0,6-1.85,6.31,6.31,0,0,0,2.09-4.95Z" transform="translate(-38.42 -225.3)"/><path class="cls-1" d="M576.79,382.85V334.79h10.58v48.06Z" transform="translate(-38.42 -225.3)"/><path class="cls-1" d="M635.15,382.85l-4.4-10.78H610.43L606,382.85H595.26l20.6-48.4h9.75l20.59,48.4Zm-14.56-35.7-6.38,15.58H627Z" transform="translate(-38.42 -225.3)"/><path class="cls-1" d="M698.86,383.19h-9.34l-19.43-48.4h11.67l12.57,33.85,12.56-33.85h11.4Z" transform="translate(-38.42 -225.3)"/><path class="cls-1" d="M726.18,382.85V334.79h10.58v48.06Z" transform="translate(-38.42 -225.3)"/><path class="cls-1" d="M782.21,375a13,13,0,0,1-3.61,4.66,16.21,16.21,0,0,1-5.54,2.89,24.14,24.14,0,0,1-7.13,1,32,32,0,0,1-10.77-1.88,28.6,28.6,0,0,1-9.62-5.81l6.25-7.48a31.57,31.57,0,0,0,6.76,4.26,18.13,18.13,0,0,0,7.59,1.58,9.13,9.13,0,0,0,5.11-1.21,3.76,3.76,0,0,0,1.82-3.32v-.14a4.2,4.2,0,0,0-.37-1.82,3.9,3.9,0,0,0-1.45-1.48,15.81,15.81,0,0,0-3-1.37,49.48,49.48,0,0,0-4.92-1.44,61.71,61.71,0,0,1-6.61-2,18.87,18.87,0,0,1-5-2.72,11,11,0,0,1-3.2-4,14,14,0,0,1-1.13-6v-.14a14,14,0,0,1,1.22-5.94,13.65,13.65,0,0,1,3.45-4.57,15.56,15.56,0,0,1,5.29-2.95,21.54,21.54,0,0,1,6.79-1,28.79,28.79,0,0,1,9.71,1.58,28.18,28.18,0,0,1,8.14,4.53l-5.49,8a34.69,34.69,0,0,0-6.32-3.47,16.09,16.09,0,0,0-6.18-1.27,7.47,7.47,0,0,0-4.63,1.2,3.66,3.66,0,0,0-1.55,3v.13a4.31,4.31,0,0,0,.45,2,4,4,0,0,0,1.62,1.54,15.06,15.06,0,0,0,3.2,1.31q2,.62,5.13,1.44a49,49,0,0,1,6.5,2.16,18.13,18.13,0,0,1,4.82,2.89,10.88,10.88,0,0,1,3,3.94,13.33,13.33,0,0,1,1,5.43v.14A14.8,14.8,0,0,1,782.21,375Z" transform="translate(-38.42 -225.3)"/><path class="cls-1" d="M828.48,382.85l-4.4-10.78H803.76l-4.39,10.78H788.59l20.6-48.4h9.75l20.59,48.4Zm-14.56-35.7-6.38,15.58h12.77Z" transform="translate(-38.42 -225.3)"/><path class="cls-1" d="M88.85,418.64a233.6,233.6,0,0,0,24.7,5.5c24.18,3.81,48,3.21,71-6.21a44.41,44.41,0,0,0,6.28-2.95c2.14-1.3,2.54-.21,2.82,1.56.38,2.39,1,4.75,1.19,7.14.19,2.17,1.09,2,2.46,1.1a1.74,1.74,0,0,1,.27-.14c7.23-3.48,7.21-3.48,7.7-11.55.14-2.3.42-4.61.67-6.91a3.52,3.52,0,0,1,1.07-2.44c5.21-4.4,10.21-9.06,16.2-13.45.49,11.38,1,22.28,1.46,33.69,4-2.1,7.82-4.06,11.59-6.05a2.2,2.2,0,0,0,1-2.06c.82-10,1.72-20.07,2.45-30.11.34-4.75.9-9.15,4.59-12.88,3.34-3.36,5.34-7.77,7-12.25a5.57,5.57,0,0,0-4.71-7.64c-4.19-.48-7.46,1.47-10.68,3.65a44,44,0,0,0-8,6.23c-1,1.13-2.1,1.13-3.52.71-11.08-3.28-22.19-6.42-33.27-9.7-1.9-.56-3.36-.52-4.84,1a70.31,70.31,0,0,1-6.28,5.67c-1.92,1.53-1.33,2.12.58,2.88a248.79,248.79,0,0,1,27.27,12.27c4.64,2.5,5.21,1.71.76,6.07a68.82,68.82,0,0,1-9.68,7.71,3,3,0,0,1-3.32.25c-2.46-1.15-5.12-1.92-7.47-3.24-2.83-1.6-5.23-1.22-7.82.46-2,1.3-4.21,2.3-6.53,3.54,2.08,2.46,5.44,3.41,7.59,6.15-2.62,1.2-5.43,1.24-8.1,1.57-31.84,3.94-61.42-1.49-87.3-21.58-7.86-6.11-14.68-13.23-18.73-22.57a8.81,8.81,0,0,1-.91-4c4.5,1.2,8.9,2.47,13.34,3.56a172.52,172.52,0,0,0,53.07,4.78c25.79-1.74,49.26-10.41,69.64-26.24,14.88-11.56,24.74-27,30.58-45,.37-1.13.76-2.26,1.24-3.68a43.53,43.53,0,0,1,8,8.36,95.38,95.38,0,0,1,18.28,35.8c7.28,28.16,3.49,54.76-12,79.43a94.31,94.31,0,0,1-35.78,33.49c-8.05,4.32-16.41,8-25.51,9.7-30.51,5.65-59,1.05-84.89-16.7A44.27,44.27,0,0,1,88.85,418.64Z" transform="translate(-38.42 -225.3)"/><path class="cls-2" d="M169.87,291.05a3.9,3.9,0,0,1,2.07,1.27,130.32,130.32,0,0,1,23.52,28.18c1,1.56.79,2.39-.66,3.43a132.41,132.41,0,0,1-28.34,15.31c-1.29.52-2,.35-2.59-.94q-7.76-15.69-15.63-31.34c-.46-.91-.68-1.62.43-2.24a171.76,171.76,0,0,0,20.46-13.29A4.73,4.73,0,0,1,169.87,291.05Z" transform="translate(-38.42 -225.3)"/><path class="cls-2" d="M121.47,349.42c-1.68.42-2.46-.47-3-2.41-2.36-8.46-4.34-17-4.82-25.77-.08-1.52,0-2.28,1.7-2.78a138,138,0,0,0,20.95-7.7c1.77-.84,2.73-.7,3.69,1.28,4.65,9.61,9.48,19.15,14.28,28.68.74,1.47,1.13,2.5-1,3.08A175.14,175.14,0,0,1,121.47,349.42Z" transform="translate(-38.42 -225.3)"/><path class="cls-2" d="M189,273.59c.65.17,1.14.28,1.62.43a83.81,83.81,0,0,1,29.87,16.68c1.23,1.05,1.29,2,.61,3.42a73.64,73.64,0,0,1-15.47,20.73c-.8.78-1.41,1.37-2.3,0-6.94-10.82-14.8-20.88-24.56-29.33-.78-.68-.81-1.24-.06-2,3.05-3.08,6.05-6.2,9.1-9.28A3.91,3.91,0,0,1,189,273.59Z" transform="translate(-38.42 -225.3)"/><path class="cls-2" d="M103.25,349.45A106.73,106.73,0,0,1,85,347.2c-1.17-.25-2-.37-1.77-2.05a92.79,92.79,0,0,1,4.36-19.69,2.76,2.76,0,0,1,2.76-2.17c3.69-.39,7.37-1,11-1.61,1.93-.34,2.62.13,2.77,2.23a114.75,114.75,0,0,0,4.18,22.79c.89,3.19.9,3.18-2.37,2.88C105.07,349.5,104.16,349.49,103.25,349.45Z" transform="translate(-38.42 -225.3)"/><path class="cls-2" d="M113.65,307c1.15-9.12,3.23-17,8.89-23.49,1.74-2,2.54-1.67,3.58.6,2.27,4.93,4.7,9.78,7.19,14.59.91,1.75.67,2.64-1.19,3.43q-7.78,3.27-15.76,6C114.38,308.8,113.18,308.75,113.65,307Z" transform="translate(-38.42 -225.3)"/><path class="cls-2" d="M139.26,276.78c7.75-.09,14.46,3.06,21,6.82,1.31.75,1.51,1.3.12,2.3a171.61,171.61,0,0,1-15.56,9.88c-1.29.74-1.91.5-2.54-.8q-3.9-8-7.95-16c-.83-1.63-.34-2.23,1.33-2.24Z" transform="translate(-38.42 -225.3)"/><path class="cls-2" d="M105.11,297.06c-.52,4.39-1.16,8.73-1.24,13.12a1.37,1.37,0,0,1-1.18,1.52c-3,.4-6,1.44-9.47,1.28A64,64,0,0,1,105.11,297.06Z" transform="translate(-38.42 -225.3)"/><path class="cls-2" d="M157.18,270.73a72.16,72.16,0,0,1,20,.28c-1.86,2.91-4.56,4.63-6.85,6.75-.55.52-1.13.14-1.64-.18C165,275.15,161.17,272.9,157.18,270.73Z" transform="translate(-38.42 -225.3)"/><path class="cls-2" d="M294,413.36c0-8.48,6.39-14.21,14.67-14.21a12.48,12.48,0,0,1,11.45,6.71l-5,2.48a7.44,7.44,0,0,0-6.43-4c-5,0-8.65,3.83-8.65,9s3.62,9,8.65,9a7.46,7.46,0,0,0,6.43-4l5,2.43a12.58,12.58,0,0,1-11.45,6.76C300.36,427.58,294,421.81,294,413.36Z" transform="translate(-38.42 -225.3)"/><path class="cls-2" d="M328.41,413.36c0-8.28,6.06-14.21,14.38-14.21s14.33,5.93,14.33,14.21-6.05,14.22-14.33,14.22S328.41,421.64,328.41,413.36Zm22.7,0c0-5.15-3.25-9-8.32-9s-8.37,3.87-8.37,9,3.26,9,8.37,9S351.11,418.47,351.11,413.36Z" transform="translate(-38.42 -225.3)"/><path class="cls-2" d="M386.33,427.08l-13.1-17.92v17.92h-5.85V399.6h6l12.73,17.27V399.6H392v27.48Z" transform="translate(-38.42 -225.3)"/><path class="cls-2" d="M401.65,423.21l3.21-4.57a12.09,12.09,0,0,0,8.74,3.75c3.25,0,4.78-1.45,4.78-3.05,0-4.78-15.82-1.45-15.82-11.79,0-4.57,3.95-8.36,10.42-8.36A15.29,15.29,0,0,1,423.69,403l-3.25,4.37a11.84,11.84,0,0,0-8-3c-2.47,0-3.87,1.07-3.87,2.72,0,4.33,15.78,1.4,15.78,11.66,0,5-3.63,8.82-11,8.82C408,427.58,404.24,425.8,401.65,423.21Z" transform="translate(-38.42 -225.3)"/><path class="cls-2" d="M434.4,416.08V399.6h5.93v16.32c0,3.83,2.22,6.47,6.47,6.47s6.42-2.64,6.42-6.47V399.6h6v16.48c0,6.8-4,11.5-12.4,11.5S434.4,422.88,434.4,416.08Z" transform="translate(-38.42 -225.3)"/><path class="cls-2" d="M470.52,427.08V399.6h5.9v22.33H488v5.15Z" transform="translate(-38.42 -225.3)"/><path class="cls-2" d="M500.35,427.08V404.75h-8V399.6h21.92v5.15h-8v22.33Z" transform="translate(-38.42 -225.3)"/><path class="cls-2" d="M540.47,427.08l-1.73-4.65H527l-1.73,4.65h-6.64l10.59-27.48h7.34l10.58,27.48Zm-7.62-21.63-4.29,11.83h8.57Z" transform="translate(-38.42 -225.3)"/><path class="cls-2" d="M574.74,427.08l-13.1-17.92v17.92h-5.85V399.6h6l12.73,17.27V399.6h5.85v27.48Z" transform="translate(-38.42 -225.3)"/><path class="cls-2" d="M598.3,427.08V404.75h-8V399.6h21.92v5.15h-8v22.33Z" transform="translate(-38.42 -225.3)"/><path class="cls-2" d="M619.89,423.21l3.21-4.57a12.07,12.07,0,0,0,8.73,3.75c3.26,0,4.78-1.45,4.78-3.05,0-4.78-15.82-1.45-15.82-11.79,0-4.57,4-8.36,10.42-8.36A15.32,15.32,0,0,1,641.93,403l-3.26,4.37a11.79,11.79,0,0,0-8-3c-2.47,0-3.87,1.07-3.87,2.72,0,4.33,15.78,1.4,15.78,11.66,0,5-3.63,8.82-11,8.82C626.27,427.58,622.48,425.8,619.89,423.21Z" transform="translate(-38.42 -225.3)"/><path class="cls-2" d="M167.69,478.12c-22.73,1-46.18-4.27-66.3-16.07a59.56,59.56,0,0,1-7.42-4.6l-7.15-5.06-6.65-5.71c-1.09-1-2.27-1.86-3.28-2.93l-3-3.17c-8.34-8.27-15-18.1-20.65-28.43l-4-7.91L46,396c-.51-1.38-1.13-2.74-1.53-4.16l-1.16-4.28c-.72-2.87-1.65-5.7-2.19-8.61-.91-5.84-2.16-11.66-2.28-17.6l-.27-4.44a31.35,31.35,0,0,1-.1-4.44l.34-8.9a123.51,123.51,0,0,1,7.58-34.71c1.79-5.7,4.71-10.91,7.2-16.32l4.58-7.66c.79-1.26,1.49-2.58,2.36-3.79l2.65-3.59a129.47,129.47,0,0,1,55.65-43.17l8.4-3,2.1-.73,2.17-.53,4.32-1.06c5.71-1.66,11.64-2.2,17.49-3.07,2.94-.36,5.91-.31,8.86-.48a65.5,65.5,0,0,1,8.86,0c2.95.23,5.91.23,8.83.65l8.76,1.25a126.38,126.38,0,0,1,62.15,31A123.17,123.17,0,0,1,286,316.81a130,130,0,0,0-38.9-54.23,124.93,124.93,0,0,0-59.91-26.4,137.49,137.49,0,0,0-32.75-.25c-5.38,1-10.82,1.55-16,3.22l-3.94,1.06-2,.53-1.91.72-7.64,2.9c-20,8.49-37.86,22.22-50.51,39.91L70,287.52c-.8,1.09-1.44,2.3-2.17,3.44l-4.24,7c-2.27,4.92-5,9.65-6.67,14.84l-1.42,3.82a27.79,27.79,0,0,0-1.27,3.87l-2.06,7.89-.51,2-.32,2-.62,4a66.87,66.87,0,0,0-1.08,8.09l-.51,8.15a27.92,27.92,0,0,0,0,4.09l.16,4.08c0,5.48,1,10.85,1.71,16.27.43,2.69,1.24,5.31,1.84,8l1,4c.34,1.32.87,2.59,1.29,3.89l2.66,7.76,3.43,7.48c.6,1.23,1.06,2.54,1.77,3.71L65,415.38,67.06,419a29.16,29.16,0,0,0,2.2,3.48l4.81,6.72a32,32,0,0,0,2.59,3.22l2.69,3.14,2.7,3.15c.89,1.06,2,1.94,2.94,2.92l6,5.75c4.39,3.36,8.54,7.12,13.33,9.95C122.78,469.87,145,476.54,167.69,478.12Z" transform="translate(-38.42 -225.3)"/></svg>